<svg width="176" height="44" viewBox="0 0 176 44" fill="none" xmlns="http://www.w3.org/2000/svg">
<g clip-path="url(#clip0_0_30)">
<rect width="176" height="44" rx="22" fill="#030303"/>
<path d="M28.008 28H29.912V23.814H34.336V22.134H29.912V19.25H34.966V17.57H28.008V28ZM35.6333 28H37.4673V23.758C37.4673 23.1793 37.626 22.7313 37.9433 22.414C38.27 22.0873 38.69 21.924 39.2033 21.924H39.8613V20.3H39.4133C38.9466 20.3 38.536 20.384 38.1813 20.552C37.8266 20.72 37.5513 21.0233 37.3553 21.462V20.384H35.6333V28ZM44.4816 28.168C45.2563 28.168 45.933 27.9953 46.5116 27.65C47.0996 27.2953 47.5103 26.8473 47.7436 26.306L46.2596 25.578C46.0916 25.8673 45.8583 26.1053 45.5596 26.292C45.2703 26.4693 44.9156 26.558 44.4956 26.558C43.945 26.558 43.483 26.39 43.1096 26.054C42.7363 25.718 42.5216 25.27 42.4656 24.71H47.9536C47.991 24.6073 48.0143 24.4907 48.0236 24.36C48.0423 24.22 48.0516 24.08 48.0516 23.94C48.0516 23.2587 47.907 22.638 47.6176 22.078C47.3283 21.518 46.9083 21.07 46.3576 20.734C45.807 20.3887 45.135 20.216 44.3416 20.216C43.6323 20.216 42.9883 20.3887 42.4096 20.734C41.8403 21.0793 41.3876 21.5507 41.0516 22.148C40.725 22.736 40.5616 23.4127 40.5616 24.178C40.5616 24.9153 40.725 25.5873 41.0516 26.194C41.3783 26.8007 41.8356 27.2813 42.4236 27.636C43.0116 27.9907 43.6976 28.168 44.4816 28.168ZM44.3416 21.728C44.827 21.728 45.2283 21.8773 45.5456 22.176C45.8723 22.4653 46.0543 22.8433 46.0916 23.31H42.5076C42.6103 22.806 42.825 22.4187 43.1516 22.148C43.4876 21.868 43.8843 21.728 44.3416 21.728ZM53.0539 28.168C53.8286 28.168 54.5052 27.9953 55.0839 27.65C55.6719 27.2953 56.0826 26.8473 56.3159 26.306L54.8319 25.578C54.6639 25.8673 54.4306 26.1053 54.1319 26.292C53.8426 26.4693 53.4879 26.558 53.0679 26.558C52.5172 26.558 52.0552 26.39 51.6819 26.054C51.3086 25.718 51.0939 25.27 51.0379 24.71H56.5259C56.5632 24.6073 56.5866 24.4907 56.5959 24.36C56.6146 24.22 56.6239 24.08 56.6239 23.94C56.6239 23.2587 56.4792 22.638 56.1899 22.078C55.9006 21.518 55.4806 21.07 54.9299 20.734C54.3792 20.3887 53.7072 20.216 52.9139 20.216C52.2046 20.216 51.5606 20.3887 50.9819 20.734C50.4126 21.0793 49.9599 21.5507 49.6239 22.148C49.2972 22.736 49.1339 23.4127 49.1339 24.178C49.1339 24.9153 49.2972 25.5873 49.6239 26.194C49.9506 26.8007 50.4079 27.2813 50.9959 27.636C51.5839 27.9907 52.2699 28.168 53.0539 28.168ZM52.9139 21.728C53.3992 21.728 53.8006 21.8773 54.1179 22.176C54.4446 22.4653 54.6266 22.8433 54.6639 23.31H51.0799C51.1826 22.806 51.3972 22.4187 51.7239 22.148C52.0599 21.868 52.4566 21.728 52.9139 21.728ZM65.5564 28.168C66.3031 28.168 66.9704 28.042 67.5584 27.79C68.1558 27.538 68.6598 27.2067 69.0704 26.796C69.4811 26.376 69.7751 25.9187 69.9524 25.424L68.2444 24.626C68.0391 25.1487 67.7031 25.5827 67.2364 25.928C66.7791 26.264 66.2191 26.432 65.5564 26.432C64.9031 26.432 64.3291 26.278 63.8344 25.97C63.3398 25.662 62.9524 25.2373 62.6724 24.696C62.3924 24.1453 62.2524 23.506 62.2524 22.778C62.2524 22.05 62.3924 21.4153 62.6724 20.874C62.9524 20.3233 63.3398 19.8987 63.8344 19.6C64.3291 19.292 64.9031 19.138 65.5564 19.138C66.2191 19.138 66.7791 19.3107 67.2364 19.656C67.7031 19.992 68.0391 20.4213 68.2444 20.944L69.9524 20.146C69.7751 19.6513 69.4811 19.1987 69.0704 18.788C68.6598 18.368 68.1558 18.032 67.5584 17.78C66.9704 17.528 66.3031 17.402 65.5564 17.402C64.8098 17.402 64.1191 17.5373 63.4844 17.808C62.8498 18.0693 62.2991 18.4427 61.8324 18.928C61.3658 19.404 61.0018 19.9733 60.7404 20.636C60.4791 21.2893 60.3484 22.0033 60.3484 22.778C60.3484 23.5527 60.4791 24.2713 60.7404 24.934C61.0018 25.5873 61.3658 26.1567 61.8324 26.642C62.2991 27.1273 62.8498 27.5053 63.4844 27.776C64.1191 28.0373 64.8098 28.168 65.5564 28.168ZM74.9315 28.168C75.6688 28.168 76.3408 28 76.9475 27.664C77.5542 27.3187 78.0395 26.8473 78.4035 26.25C78.7675 25.6433 78.9495 24.9573 78.9495 24.192C78.9495 23.4267 78.7675 22.7453 78.4035 22.148C78.0488 21.5507 77.5682 21.0793 76.9615 20.734C76.3548 20.3887 75.6782 20.216 74.9315 20.216C74.1755 20.216 73.4942 20.3887 72.8875 20.734C72.2808 21.0793 71.7955 21.5507 71.4315 22.148C71.0768 22.7453 70.8995 23.4267 70.8995 24.192C70.8995 24.9573 71.0768 25.6387 71.4315 26.236C71.7955 26.8333 72.2808 27.3047 72.8875 27.65C73.5035 27.9953 74.1848 28.168 74.9315 28.168ZM74.9315 26.488C74.5208 26.488 74.1522 26.39 73.8255 26.194C73.5082 25.998 73.2562 25.7273 73.0695 25.382C72.8922 25.0273 72.8035 24.6307 72.8035 24.192C72.8035 23.7533 72.8922 23.3613 73.0695 23.016C73.2562 22.6707 73.5082 22.4 73.8255 22.204C74.1522 21.9987 74.5208 21.896 74.9315 21.896C75.3422 21.896 75.7015 21.9987 76.0095 22.204C76.3268 22.4 76.5742 22.6707 76.7515 23.016C76.9382 23.3613 77.0315 23.7533 77.0315 24.192C77.0315 24.6307 76.9382 25.0273 76.7515 25.382C76.5742 25.7273 76.3268 25.998 76.0095 26.194C75.7015 26.39 75.3422 26.488 74.9315 26.488ZM80.3403 28H82.1743V23.534C82.1743 23.0393 82.3143 22.6427 82.5943 22.344C82.8837 22.0453 83.257 21.896 83.7143 21.896C84.1717 21.896 84.5403 22.0453 84.8203 22.344C85.1097 22.6333 85.2543 23.03 85.2543 23.534V28H87.0883V23.1C87.0883 22.5307 86.967 22.0313 86.7243 21.602C86.4817 21.1633 86.141 20.8227 85.7023 20.58C85.273 20.3373 84.7783 20.216 84.2183 20.216C83.7423 20.216 83.313 20.3093 82.9303 20.496C82.557 20.6827 82.2677 20.958 82.0623 21.322V20.384H80.3403V28ZM91.5372 28.168C92.1158 28.168 92.6198 28.07 93.0492 27.874C93.4785 27.678 93.8145 27.4073 94.0572 27.062C94.2998 26.7073 94.4212 26.3013 94.4212 25.844C94.4212 25.312 94.2532 24.8547 93.9172 24.472C93.5812 24.0893 93.0958 23.8093 92.4612 23.632L91.2432 23.268C90.9818 23.1933 90.7672 23.0953 90.5992 22.974C90.4312 22.8527 90.3472 22.6847 90.3472 22.47C90.3472 22.246 90.4358 22.064 90.6132 21.924C90.7905 21.784 91.0332 21.714 91.3412 21.714C91.7238 21.714 92.0692 21.8167 92.3772 22.022C92.6945 22.2273 92.9138 22.5027 93.0352 22.848L94.4352 22.19C94.2018 21.574 93.8098 21.0933 93.2592 20.748C92.7085 20.3933 92.0738 20.216 91.3552 20.216C90.8045 20.216 90.3145 20.314 89.8852 20.51C89.4652 20.706 89.1338 20.9813 88.8912 21.336C88.6578 21.6813 88.5412 22.0873 88.5412 22.554C88.5412 23.0767 88.7045 23.5293 89.0312 23.912C89.3672 24.2947 89.8572 24.5793 90.5012 24.766L91.7472 25.116C91.9898 25.1813 92.1952 25.2793 92.3632 25.41C92.5405 25.5313 92.6292 25.6993 92.6292 25.914C92.6292 26.166 92.5265 26.3667 92.3212 26.516C92.1252 26.656 91.8638 26.726 91.5372 26.726C91.1078 26.726 90.7205 26.6047 90.3752 26.362C90.0298 26.1193 89.7545 25.7833 89.5492 25.354L88.1772 26.012C88.4012 26.6653 88.8118 27.188 89.4092 27.58C90.0158 27.972 90.7252 28.168 91.5372 28.168ZM98.5466 28.168C99.0226 28.168 99.4426 28.0793 99.8066 27.902C100.18 27.7153 100.474 27.4447 100.689 27.09V28H102.425V20.384H100.591V24.85C100.591 25.354 100.446 25.7553 100.157 26.054C99.8672 26.3433 99.4986 26.488 99.0506 26.488C98.5932 26.488 98.2199 26.3433 97.9306 26.054C97.6506 25.7647 97.5106 25.3773 97.5106 24.892V20.384H95.6766V25.046C95.6766 25.9793 95.9286 26.7353 96.4326 27.314C96.9459 27.8833 97.6506 28.168 98.5466 28.168ZM104.129 28H105.963V17.402H104.129V28ZM111.129 28.084C111.437 28.084 111.74 28.0607 112.039 28.014V26.432C111.861 26.46 111.698 26.474 111.549 26.474C111.101 26.474 110.774 26.3713 110.569 26.166C110.363 25.9607 110.261 25.6667 110.261 25.284V22.022H112.011V20.384H110.261V18.648H108.427V19.236C108.427 19.6093 108.324 19.894 108.119 20.09C107.913 20.286 107.624 20.384 107.251 20.384H107.111V22.022H108.427V25.382C108.427 26.2313 108.66 26.894 109.127 27.37C109.603 27.846 110.27 28.084 111.129 28.084ZM115.709 28.168C116.698 28.168 117.492 27.8413 118.089 27.188V28H119.825V22.932C119.825 22.4 119.69 21.9287 119.419 21.518C119.148 21.1073 118.775 20.79 118.299 20.566C117.832 20.3327 117.286 20.216 116.661 20.216C115.896 20.216 115.214 20.398 114.617 20.762C114.02 21.126 113.609 21.6067 113.385 22.204L114.883 22.932C115.023 22.5867 115.242 22.3113 115.541 22.106C115.84 21.8913 116.19 21.784 116.591 21.784C117.011 21.784 117.347 21.896 117.599 22.12C117.86 22.3347 117.991 22.6053 117.991 22.932V23.184L115.723 23.548C114.827 23.6973 114.164 23.982 113.735 24.402C113.306 24.822 113.091 25.3493 113.091 25.984C113.091 26.656 113.329 27.188 113.805 27.58C114.281 27.972 114.916 28.168 115.709 28.168ZM114.995 25.914C114.995 25.382 115.354 25.046 116.073 24.906L117.991 24.584V24.892C117.991 25.4147 117.809 25.858 117.445 26.222C117.09 26.586 116.624 26.768 116.045 26.768C115.737 26.768 115.485 26.6933 115.289 26.544C115.093 26.3853 114.995 26.1753 114.995 25.914ZM124.855 28.084C125.163 28.084 125.467 28.0607 125.765 28.014V26.432C125.588 26.46 125.425 26.474 125.275 26.474C124.827 26.474 124.501 26.3713 124.295 26.166C124.09 25.9607 123.987 25.6667 123.987 25.284V22.022H125.737V20.384H123.987V18.648H122.153V19.236C122.153 19.6093 122.051 19.894 121.845 20.09C121.64 20.286 121.351 20.384 120.977 20.384H120.837V22.022H122.153V25.382C122.153 26.2313 122.387 26.894 122.853 27.37C123.329 27.846 123.997 28.084 124.855 28.084ZM127.167 19.53H129.001V17.57H127.167V19.53ZM127.167 28H129.001V20.384H127.167V28ZM134.418 28.168C135.155 28.168 135.827 28 136.434 27.664C137.041 27.3187 137.526 26.8473 137.89 26.25C138.254 25.6433 138.436 24.9573 138.436 24.192C138.436 23.4267 138.254 22.7453 137.89 22.148C137.535 21.5507 137.055 21.0793 136.448 20.734C135.841 20.3887 135.165 20.216 134.418 20.216C133.662 20.216 132.981 20.3887 132.374 20.734C131.767 21.0793 131.282 21.5507 130.918 22.148C130.563 22.7453 130.386 23.4267 130.386 24.192C130.386 24.9573 130.563 25.6387 130.918 26.236C131.282 26.8333 131.767 27.3047 132.374 27.65C132.99 27.9953 133.671 28.168 134.418 28.168ZM134.418 26.488C134.007 26.488 133.639 26.39 133.312 26.194C132.995 25.998 132.743 25.7273 132.556 25.382C132.379 25.0273 132.29 24.6307 132.29 24.192C132.29 23.7533 132.379 23.3613 132.556 23.016C132.743 22.6707 132.995 22.4 133.312 22.204C133.639 21.9987 134.007 21.896 134.418 21.896C134.829 21.896 135.188 21.9987 135.496 22.204C135.813 22.4 136.061 22.6707 136.238 23.016C136.425 23.3613 136.518 23.7533 136.518 24.192C136.518 24.6307 136.425 25.0273 136.238 25.382C136.061 25.7273 135.813 25.998 135.496 26.194C135.188 26.39 134.829 26.488 134.418 26.488ZM139.827 28H141.661V23.534C141.661 23.0393 141.801 22.6427 142.081 22.344C142.37 22.0453 142.743 21.896 143.201 21.896C143.658 21.896 144.027 22.0453 144.307 22.344C144.596 22.6333 144.741 23.03 144.741 23.534V28H146.575V23.1C146.575 22.5307 146.453 22.0313 146.211 21.602C145.968 21.1633 145.627 20.8227 145.189 20.58C144.759 20.3373 144.265 20.216 143.705 20.216C143.229 20.216 142.799 20.3093 142.417 20.496C142.043 20.6827 141.754 20.958 141.549 21.322V20.384H139.827V28Z" fill="#FFF7F0"/>
</g>
<defs>
<clipPath id="clip0_0_30">
<rect width="176" height="44" fill="white"/>
</clipPath>
</defs>
</svg>
